####
#
# OBJ File Generated by Meshlab
#
####
# Object ear_right_in.obj
#
# Vertices: 164
# Faces: 152
#
####
vn 0.750567 1.284926 0.000000
v -36.667892 73.151871 11.812304 0.752941 0.752941 0.752941
vn 0.804110 1.376586 -0.000000
v -14.019732 59.922325 9.637808 0.752941 0.752941 0.752941
vn 0.780467 1.336111 0.000000
v -14.335218 60.106613 3.481363 0.752941 0.752941 0.752941
vn 1.584577 2.712696 -0.000002
v -33.836868 71.498177 11.540492 0.752941 0.752941 0.752941
vn 1.584577 2.712696 -0.000001
v -31.005850 69.844482 11.268680 0.752941 0.752941 0.752941
vn 1.584577 2.712696 -0.000001
v -28.174829 68.190788 10.996867 0.752941 0.752941 0.752941
vn 1.584574 2.712698 0.000002
v -25.343809 66.537094 10.725056 0.752941 0.752941 0.752941
vn 1.584576 2.712697 -0.000001
v -22.512789 64.883408 10.453243 0.752941 0.752941 0.752941
vn 1.584577 2.712696 -0.000003
v -19.681770 63.229713 10.181432 0.752941 0.752941 0.752941
vn 1.584577 2.712696 -0.000001
v -16.850750 61.576019 9.909619 0.752941 0.752941 0.752941
vn 1.584576 2.712696 0.000001
v -17.126802 61.737270 3.749388 0.752941 0.752941 0.752941
vn 1.584575 2.712698 0.000001
v -19.918386 63.367928 4.017414 0.752941 0.752941 0.752941
vn 1.584577 2.712696 -0.000002
v -22.709970 64.998581 4.285439 0.752941 0.752941 0.752941
vn 1.584575 2.712698 -0.000001
v -25.501554 66.629242 4.553465 0.752941 0.752941 0.752941
vn 1.584577 2.712696 -0.000001
v -28.293139 68.259895 4.821491 0.752941 0.752941 0.752941
vn 1.584577 2.712697 -0.000001
v -31.084723 69.890556 5.089517 0.752941 0.752941 0.752941
vn 1.584574 2.712698 -0.000006
v -33.876308 71.521210 5.357543 0.752941 0.752941 0.752941
vn 0.834010 1.427770 0.000000
v -36.667892 73.151871 5.625568 0.752941 0.752941 0.752941
vn 1.584577 2.712697 -0.000001
v -36.667892 73.151871 8.718936 0.752941 0.752941 0.752941
vn 1.298353 -0.590064 -0.084197
v -14.019732 59.922325 9.637808 0.752941 0.752941 0.752941
vn 1.445044 -0.656731 -0.093710
v -21.781481 43.235077 6.894980 0.752941 0.752941 0.752941
vn 1.410064 -0.640834 -0.091442
v -21.781481 44.097641 0.850021 0.752941 0.752941 0.752941
vn 2.855108 -1.297565 -0.185151
v -21.781481 43.666359 3.872501 0.752941 0.752941 0.752941
vn 1.556756 -0.707501 -0.100954
v -14.335218 60.106613 3.481363 0.752941 0.752941 0.752941
vn 2.855109 -1.297566 -0.185151
v -15.960169 55.750515 8.952101 0.752941 0.752941 0.752941
vn 2.855108 -1.297565 -0.185151
v -17.900606 51.578701 8.266395 0.752941 0.752941 0.752941
vn 2.855109 -1.297566 -0.185150
v -19.841043 47.406891 7.580688 0.752941 0.752941 0.752941
vn 2.855109 -1.297565 -0.185150
v -19.919914 48.099884 1.507857 0.752941 0.752941 0.752941
vn 2.855109 -1.297566 -0.185151
v -18.058350 52.102127 2.165692 0.752941 0.752941 0.752941
vn 2.855109 -1.297566 -0.185151
v -16.196783 56.104370 2.823527 0.752941 0.752941 0.752941
vn 0.175875 -1.542901 -0.220159
v -21.781481 43.235077 6.894980 0.752941 0.752941 0.752941
vn 0.176408 -1.547574 -0.220826
v -21.781481 44.097641 0.850021 0.752941 0.752941 0.752941
vn 0.171406 -1.503693 -0.214564
v -34.702492 42.658527 0.613479 0.752941 0.752941 0.752941
vn 0.352283 -3.090475 -0.440984
v -21.781481 43.666359 3.872501 0.752941 0.752941 0.752941
vn 0.352282 -3.090475 -0.440983
v -26.007822 42.764359 6.817610 0.752941 0.752941 0.752941
vn 0.352283 -3.090475 -0.440983
v -30.234165 42.293640 6.740239 0.752941 0.752941 0.752941
vn 0.180878 -1.586781 -0.226419
v -34.460506 41.822918 6.662868 0.752941 0.752941 0.752941
vn 0.352283 -3.090475 -0.440983
v -30.395487 43.138233 0.692327 0.752941 0.752941 0.752941
vn 0.352282 -3.090475 -0.440983
v -26.088484 43.617935 0.771174 0.752941 0.752941 0.752941
vn 0.352284 -3.090476 -0.440983
v -34.581497 42.240723 3.638174 0.752941 0.752941 0.752941
vn 0.000000 -1.019072 6.199993
v -31.912052 49.493149 7.923599 0.752941 0.752941 0.752941
vn -0.000000 -1.019072 6.199993
v -25.507980 50.713341 8.124158 0.752941 0.752941 0.752941
vn 0.000000 -1.019072 6.199993
v -33.451588 57.388107 9.221267 0.752941 0.752941 0.752941
vn 0.000000 -1.019072 6.199994
v -27.047518 58.608299 9.421825 0.752941 0.752941 0.752941
vn 0.000000 -1.019072 6.199992
v -20.643446 59.828491 9.622384 0.752941 0.752941 0.752941
vn -0.000000 -0.342787 2.085499
v -21.781481 43.235077 6.894980 0.752941 0.752941 0.752941
vn -0.000000 -0.509536 3.099996
v -26.007822 42.764359 6.817610 0.752941 0.752941 0.752941
vn -0.000000 -0.509536 3.099997
v -30.234165 42.293640 6.740239 0.752941 0.752941 0.752941
vn 0.000000 -0.281682 1.713741
v -34.460506 41.822918 6.662868 0.752941 0.752941 0.752941
vn 0.000001 -0.285257 1.735497
v -42.414223 69.288559 11.177304 0.752941 0.752941 0.752941
vn 0.000001 -0.317136 1.929442
v -41.725990 69.630394 11.233490 0.752941 0.752941 0.752941
vn 0.000000 -0.509536 3.099996
v -35.454723 45.256126 7.227173 0.752941 0.752941 0.752941
vn 0.000000 -0.509536 3.099997
v -36.448936 48.689331 7.791478 0.752941 0.752941 0.752941
vn 0.000000 -0.509536 3.099997
v -37.443150 52.122536 8.355783 0.752941 0.752941 0.752941
vn 0.000000 -0.509536 3.099995
v -38.437366 55.555740 8.920087 0.752941 0.752941 0.752941
vn 0.000000 -0.509536 3.099996
v -39.431580 58.988945 9.484391 0.752941 0.752941 0.752941
vn 0.000000 -0.509536 3.099997
v -40.425793 62.422150 10.048696 0.752941 0.752941 0.752941
vn 0.000000 -0.509536 3.099997
v -41.420006 65.855354 10.613000 0.752941 0.752941 0.752941
vn 0.000000 -0.288073 1.752632
v -36.667892 73.151871 11.812304 0.752941 0.752941 0.752941
vn -0.000000 -0.509536 3.099995
v -33.836868 71.498177 11.540492 0.752941 0.752941 0.752941
vn 0.000000 -0.509536 3.099996
v -31.005850 69.844482 11.268680 0.752941 0.752941 0.752941
vn -0.000000 -0.509536 3.099996
v -28.174829 68.190788 10.996867 0.752941 0.752941 0.752941
vn 0.000000 -0.509537 3.099998
v -25.343809 66.537094 10.725056 0.752941 0.752941 0.752941
vn 0.000000 -0.509536 3.099994
v -22.512789 64.883408 10.453243 0.752941 0.752941 0.752941
vn -0.000000 -0.509536 3.099996
v -19.681770 63.229713 10.181432 0.752941 0.752941 0.752941
vn -0.000000 -0.509536 3.099996
v -16.850750 61.576019 9.909619 0.752941 0.752941 0.752941
vn -0.000000 -0.271669 1.652824
v -14.019732 59.922325 9.637808 0.752941 0.752941 0.752941
vn 0.000000 -0.317604 1.932293
v -37.233555 72.540382 11.711796 0.752941 0.752941 0.752941
vn -0.000000 -0.747154 4.545655
v -33.411324 64.601677 10.406937 0.752941 0.752941 0.752941
vn -0.000000 -0.509536 3.099996
v -35.322441 68.571030 11.059366 0.752941 0.752941 0.752941
vn 0.000000 -0.715388 4.352392
v -34.885696 63.711174 10.260568 0.752941 0.752941 0.752941
vn 0.000000 -0.509536 3.099996
v -38.305843 66.670784 10.747029 0.752941 0.752941 0.752941
vn 0.000000 -0.509536 3.099997
v -15.960169 55.750515 8.952101 0.752941 0.752941 0.752941
vn 0.000000 -0.509536 3.099996
v -17.900606 51.578701 8.266395 0.752941 0.752941 0.752941
vn 0.000000 -0.509536 3.099997
v -19.841043 47.406891 7.580688 0.752941 0.752941 0.752941
vn 0.000000 1.019072 -6.199993
v -32.101070 50.104057 1.837276 0.752941 0.752941 0.752941
vn -0.000000 1.019072 -6.199994
v -25.764381 51.311409 2.035725 0.752941 0.752941 0.752941
vn 0.000000 1.019072 -6.199992
v -33.600063 57.791096 3.100769 0.752941 0.752941 0.752941
vn 0.000000 1.019072 -6.199993
v -27.263374 58.998451 3.299218 0.752941 0.752941 0.752941
vn -0.000000 1.019072 -6.199993
v -20.926685 60.205803 3.497667 0.752941 0.752941 0.752941
vn -0.000000 0.342787 -2.085500
v -21.781481 44.097641 0.850021 0.752941 0.752941 0.752941
vn -0.000000 0.509536 -3.099995
v -26.088484 43.617935 0.771174 0.752941 0.752941 0.752941
vn -0.000000 0.509536 -3.099997
v -30.395487 43.138233 0.692327 0.752941 0.752941 0.752941
vn -0.000000 0.281682 -1.713740
v -34.702492 42.658527 0.613479 0.752941 0.752941 0.752941
vn -0.000001 0.285258 -1.735497
v -42.414223 69.288559 4.990569 0.752941 0.752941 0.752941
vn -0.000001 0.317136 -1.929442
v -41.725990 69.630394 5.046754 0.752941 0.752941 0.752941
vn -0.000000 0.509536 -3.099997
v -35.666458 45.987282 1.160616 0.752941 0.752941 0.752941
vn 0.000000 0.509536 -3.099997
v -36.630424 49.316036 1.707752 0.752941 0.752941 0.752941
vn 0.000000 0.509536 -3.099997
v -37.594391 52.644791 2.254888 0.752941 0.752941 0.752941
vn 0.000000 0.509536 -3.099996
v -38.558357 55.973545 2.802024 0.752941 0.752941 0.752941
vn 0.000000 0.509536 -3.099996
v -39.522324 59.302299 3.349160 0.752941 0.752941 0.752941
vn 0.000000 0.509536 -3.099996
v -40.486290 62.631054 3.896296 0.752941 0.752941 0.752941
vn -0.000000 0.509536 -3.099997
v -41.450256 65.959808 4.443432 0.752941 0.752941 0.752941
vn -0.000000 0.288073 -1.752631
v -36.667892 73.151871 5.625568 0.752941 0.752941 0.752941
vn -0.000000 0.509537 -3.099998
v -33.876308 71.521210 5.357543 0.752941 0.752941 0.752941
vn 0.000000 0.509536 -3.099994
v -31.084723 69.890556 5.089517 0.752941 0.752941 0.752941
vn 0.000000 0.509536 -3.099998
v -28.293139 68.259895 4.821491 0.752941 0.752941 0.752941
vn -0.000000 0.509536 -3.099994
v -25.501554 66.629242 4.553465 0.752941 0.752941 0.752941
vn 0.000000 0.509536 -3.099998
v -22.709970 64.998581 4.285439 0.752941 0.752941 0.752941
vn -0.000000 0.509536 -3.099995
v -19.918386 63.367928 4.017414 0.752941 0.752941 0.752941
vn -0.000000 0.509536 -3.099996
v -17.126802 61.737270 3.749388 0.752941 0.752941 0.752941
vn -0.000000 0.271669 -1.652824
v -14.335218 60.106613 3.481363 0.752941 0.752941 0.752941
vn -0.000000 0.317604 -1.932293
v -37.233555 72.540382 5.525060 0.752941 0.752941 0.752941
vn 0.000000 0.747154 -4.545656
v -33.411324 64.601677 4.220201 0.752941 0.752941 0.752941
vn -0.000000 0.509536 -3.099996
v -35.322441 68.571030 4.872631 0.752941 0.752941 0.752941
vn 0.000000 0.715388 -4.352392
v -34.885696 63.711174 4.073832 0.752941 0.752941 0.752941
vn 0.000000 0.509536 -3.099997
v -38.305843 66.670784 4.560293 0.752941 0.752941 0.752941
vn -0.000000 0.509536 -3.099996
v -16.196783 56.104370 2.823527 0.752941 0.752941 0.752941
vn -0.000000 0.509536 -3.099997
v -18.058350 52.102127 2.165692 0.752941 0.752941 0.752941
vn -0.000000 0.509536 -3.099996
v -19.919914 48.099884 1.507857 0.752941 0.752941 0.752941
vn -0.666282 1.341456 0.000000
v -41.725990 69.630394 11.233490 0.752941 0.752941 0.752941
vn -0.666282 1.341456 0.000000
v -42.414223 69.288559 4.990569 0.752941 0.752941 0.752941
vn -0.731215 1.472190 0.000000
v -42.414223 69.288559 11.177304 0.752941 0.752941 0.752941
vn -0.731215 1.472190 0.000000
v -41.725990 69.630394 5.046754 0.752941 0.752941 0.752941
vn -1.397497 2.813647 0.000000
v -42.414223 69.288559 8.083937 0.752941 0.752941 0.752941
vn -1.397497 2.813647 0.000000
v -41.725990 69.630394 8.140122 0.752941 0.752941 0.752941
vn -1.358397 -0.393376 0.000000
v -42.414223 69.288559 11.177304 0.752941 0.752941 0.752941
vn -1.495588 -0.433104 0.000002
v -34.702492 42.658527 0.613479 0.752941 0.752941 0.752941
vn -3.017609 -0.873864 0.000001
v -34.581497 42.240723 3.638174 0.752941 0.752941 0.752941
vn -1.522022 -0.440760 -0.000000
v -34.460506 41.822918 6.662868 0.752941 0.752941 0.752941
vn -3.017609 -0.873863 0.000000
v -35.454723 45.256126 7.227173 0.752941 0.752941 0.752941
vn -3.017610 -0.873862 0.000001
v -36.448936 48.689331 7.791478 0.752941 0.752941 0.752941
vn -3.017609 -0.873863 0.000001
v -37.443150 52.122536 8.355783 0.752941 0.752941 0.752941
vn -3.017610 -0.873864 -0.000000
v -38.437366 55.555740 8.920087 0.752941 0.752941 0.752941
vn -3.017610 -0.873862 0.000000
v -39.431580 58.988945 9.484391 0.752941 0.752941 0.752941
vn -3.017610 -0.873862 0.000001
v -40.425793 62.422150 10.048696 0.752941 0.752941 0.752941
vn -3.017609 -0.873864 0.000001
v -41.420006 65.855354 10.613000 0.752941 0.752941 0.752941
vn -1.659213 -0.480488 0.000000
v -42.414223 69.288559 4.990569 0.752941 0.752941 0.752941
vn -3.017609 -0.873863 0.000001
v -41.450256 65.959808 4.443432 0.752941 0.752941 0.752941
vn -3.017610 -0.873863 0.000000
v -40.486290 62.631054 3.896296 0.752941 0.752941 0.752941
vn -3.017610 -0.873863 0.000000
v -39.522324 59.302299 3.349160 0.752941 0.752941 0.752941
vn -3.017610 -0.873863 0.000000
v -38.558357 55.973545 2.802024 0.752941 0.752941 0.752941
vn -3.017610 -0.873863 0.000001
v -37.594391 52.644791 2.254888 0.752941 0.752941 0.752941
vn -3.017610 -0.873863 0.000001
v -36.630424 49.316036 1.707752 0.752941 0.752941 0.752941
vn -3.017610 -0.873864 0.000001
v -35.666458 45.987282 1.160616 0.752941 0.752941 0.752941
vn -3.017609 -0.873864 0.000000
v -42.414223 69.288559 8.083937 0.752941 0.752941 0.752941
vn -1.064941 0.985133 0.000000
v -36.667892 73.151871 11.812304 0.752941 0.752941 0.752941
vn -1.064942 0.985133 0.000000
v -37.233555 72.540382 5.525060 0.752941 0.752941 0.752941
vn -1.241233 1.148213 0.000000
v -37.233555 72.540382 11.711796 0.752941 0.752941 0.752941
vn -1.241233 1.148213 0.000000
v -36.667892 73.151871 5.625568 0.752941 0.752941 0.752941
vn -2.306175 2.133346 0.000000
v -36.667892 73.151871 8.718936 0.752941 0.752941 0.752941
vn -2.306174 2.133346 0.000000
v -37.233555 72.540382 8.618428 0.752941 0.752941 0.752941
vn -1.282826 -0.617639 0.000000
v -37.233555 72.540382 11.711796 0.752941 0.752941 0.752941
vn -1.282825 -0.617640 0.000000
v -33.411324 64.601677 4.220201 0.752941 0.752941 0.752941
vn -1.547769 -0.745202 0.000000
v -33.411324 64.601677 10.406937 0.752941 0.752941 0.752941
vn -2.830595 -1.362840 0.000000
v -35.322441 68.571030 11.059366 0.752941 0.752941 0.752941
vn -1.547770 -0.745201 0.000000
v -37.233555 72.540382 5.525060 0.752941 0.752941 0.752941
vn -2.830595 -1.362841 0.000000
v -35.322441 68.571030 4.872631 0.752941 0.752941 0.752941
vn -2.830596 -1.362839 0.000000
v -37.233555 72.540382 8.618428 0.752941 0.752941 0.752941
vn -2.830595 -1.362842 0.000000
v -33.411324 64.601677 7.313569 0.752941 0.752941 0.752941
vn -0.768278 1.272010 0.000000
v -33.411324 64.601677 10.406937 0.752941 0.752941 0.752941
vn -0.768278 1.272010 0.000000
v -34.885696 63.711174 4.073832 0.752941 0.752941 0.752941
vn -0.855936 1.417141 0.000000
v -34.885696 63.711174 10.260568 0.752941 0.752941 0.752941
vn -0.855936 1.417141 0.000000
v -33.411324 64.601677 4.220201 0.752941 0.752941 0.752941
vn -1.624214 2.689151 0.000000
v -33.411324 64.601677 7.313569 0.752941 0.752941 0.752941
vn -1.624214 2.689151 0.000000
v -34.885696 63.711174 7.167200 0.752941 0.752941 0.752941
vn 0.957756 1.106790 0.000000
v -34.885696 63.711174 4.073832 0.752941 0.752941 0.752941
vn 0.957756 1.106790 0.000000
v -41.725990 69.630394 11.233490 0.752941 0.752941 0.752941
vn 2.055732 2.375619 0.000000
v -38.305843 66.670784 10.747029 0.752941 0.752941 0.752941
vn 1.097977 1.268830 0.000000
v -34.885696 63.711174 10.260568 0.752941 0.752941 0.752941
vn 2.055732 2.375619 0.000000
v -38.305843 66.670784 4.560293 0.752941 0.752941 0.752941
vn 1.097976 1.268830 0.000000
v -41.725990 69.630394 5.046754 0.752941 0.752941 0.752941
vn 2.055733 2.375620 0.000000
v -41.725990 69.630394 8.140122 0.752941 0.752941 0.752941
vn 2.055732 2.375620 0.000000
v -34.885696 63.711174 7.167200 0.752941 0.752941 0.752941
# 164 vertices, 0 vertices normals

f 2//2 3//3 11//11
f 10//10 12//12 13//13
f 2//2 11//11 12//12
f 10//10 2//2 12//12
f 13//13 9//9 10//10
f 8//8 15//15 7//7
f 9//9 14//14 8//8
f 13//13 14//14 9//9
f 15//15 16//16 7//7
f 19//19 17//17 18//18
f 16//16 19//19 7//7
f 17//17 19//19 16//16
f 19//19 5//5 6//6
f 1//1 4//4 19//19
f 5//5 19//19 4//4
f 6//6 7//7 19//19
f 14//14 15//15 8//8
f 20//20 25//25 30//30
f 20//20 30//30 24//24
f 25//25 26//26 29//29
f 25//25 29//29 30//30
f 23//23 27//27 21//21
f 26//26 23//23 29//29
f 23//23 28//28 29//29
f 23//23 22//22 28//28
f 27//27 23//23 26//26
f 34//34 31//31 35//35
f 32//32 34//34 39//39
f 35//35 39//39 34//34
f 35//35 36//36 38//38
f 35//35 38//38 39//39
f 40//40 36//36 37//37
f 33//33 38//38 40//40
f 36//36 40//40 38//38
f 44//44 43//43 41//41
f 44//44 41//41 42//42
f 42//42 45//45 44//44
f 48//48 52//52 49//49
f 41//41 48//48 47//47
f 52//52 48//48 41//41
f 41//41 53//53 52//52
f 43//43 55//55 54//54
f 53//53 41//41 54//54
f 43//43 54//54 41//41
f 43//43 56//56 55//55
f 42//42 46//46 75//75
f 75//75 74//74 42//42
f 47//47 46//46 42//42
f 41//41 47//47 42//42
f 66//66 73//73 67//67
f 45//45 74//74 73//73
f 45//45 73//73 66//66
f 45//45 64//64 44//44
f 42//42 74//74 45//45
f 44//44 69//69 43//43
f 72//72 57//57 71//71
f 71//71 43//43 69//69
f 57//57 56//56 71//71
f 72//72 58//58 57//57
f 58//58 72//72 51//51
f 50//50 58//58 51//51
f 59//59 68//68 60//60
f 64//64 63//63 44//44
f 45//45 65//65 64//64
f 66//66 65//65 45//45
f 62//62 69//69 44//44
f 61//61 60//60 70//70
f 68//68 70//70 60//60
f 63//63 62//62 44//44
f 61//61 69//69 62//62
f 61//61 70//70 69//69
f 71//71 56//56 43//43
f 79//79 77//77 76//76
f 79//79 76//76 78//78
f 77//77 79//79 80//80
f 83//83 84//84 87//87
f 76//76 82//82 83//83
f 87//87 76//76 83//83
f 76//76 87//87 88//88
f 78//78 89//89 90//90
f 88//88 89//89 76//76
f 78//78 76//76 89//89
f 78//78 90//90 91//91
f 77//77 110//110 81//81
f 110//110 77//77 109//109
f 82//82 77//77 81//81
f 76//76 77//77 82//82
f 101//101 102//102 108//108
f 80//80 108//108 109//109
f 80//80 101//101 108//108
f 80//80 79//79 99//99
f 77//77 80//80 109//109
f 79//79 78//78 104//104
f 107//107 106//106 92//92
f 106//106 104//104 78//78
f 92//92 106//106 91//91
f 107//107 92//92 93//93
f 93//93 86//86 107//107
f 85//85 86//86 93//93
f 94//94 95//95 103//103
f 99//99 79//79 98//98
f 80//80 99//99 100//100
f 101//101 80//80 100//100
f 97//97 79//79 104//104
f 96//96 105//105 95//95
f 103//103 95//95 105//105
f 97//97 98//98 79//79
f 97//97 104//104 96//96
f 96//96 104//104 105//105
f 106//106 78//78 91//91
f 116//116 114//114 112//112
f 116//116 112//112 115//115
f 111//111 116//116 115//115
f 111//111 115//115 113//113
f 136//136 128//128 129//129
f 124//124 125//125 131//131
f 126//126 129//129 130//130
f 131//131 125//125 130//130
f 127//127 117//117 136//136
f 136//136 129//129 127//127
f 127//127 129//129 126//126
f 126//126 130//130 125//125
f 124//124 131//131 132//132
f 134//134 122//122 133//133
f 119//119 135//135 118//118
f 121//121 134//134 135//135
f 135//135 119//119 121//121
f 124//124 132//132 123//123
f 133//133 122//122 123//123
f 119//119 120//120 121//121
f 134//134 121//121 122//122
f 133//133 123//123 132//132
f 141//141 140//140 138//138
f 141//141 138//138 142//142
f 137//137 141//141 142//142
f 137//137 142//142 139//139
f 149//149 147//147 148//148
f 149//149 146//146 143//143
f 146//146 149//149 148//148
f 148//148 150//150 146//146
f 150//150 145//145 146//146
f 144//144 150//150 148//148
f 155//155 154//154 152//152
f 155//155 152//152 156//156
f 151//151 155//155 156//156
f 151//151 156//156 153//153
f 164//164 157//157 161//161
f 164//164 159//159 160//160
f 159//159 164//164 161//161
f 161//161 163//163 159//159
f 163//163 158//158 159//159
f 162//162 163//163 161//161
# 152 faces, 0 coords texture

# End of File
