####
#
# OBJ File Generated by Meshlab
#
####
# Object ear_left_in.obj
#
# Vertices: 164
# Faces: 152
#
####
vn -0.750568 1.284925 0.000000
v 36.421276 73.151871 11.812304 0.752941 0.752941 0.752941
vn -0.804110 1.376586 0.000000
v 13.773115 59.922325 9.637808 0.752941 0.752941 0.752941
vn -0.780467 1.336111 0.000000
v 14.088602 60.106613 3.481363 0.752941 0.752941 0.752941
vn -1.584576 2.712697 0.000001
v 33.590256 71.498177 11.540492 0.752941 0.752941 0.752941
vn -1.584577 2.712696 -0.000001
v 30.759233 69.844482 11.268680 0.752941 0.752941 0.752941
vn -1.584577 2.712696 -0.000001
v 27.928213 68.190788 10.996867 0.752941 0.752941 0.752941
vn -1.584574 2.712697 0.000001
v 25.097193 66.537094 10.725056 0.752941 0.752941 0.752941
vn -1.584576 2.712698 -0.000000
v 22.266174 64.883408 10.453243 0.752941 0.752941 0.752941
vn -1.584577 2.712695 -0.000003
v 19.435154 63.229713 10.181432 0.752941 0.752941 0.752941
vn -1.584577 2.712697 -0.000001
v 16.604136 61.576019 9.909619 0.752941 0.752941 0.752941
vn -1.584576 2.712696 0.000001
v 16.880186 61.737270 3.749388 0.752941 0.752941 0.752941
vn -1.584575 2.712698 0.000002
v 19.671770 63.367928 4.017414 0.752941 0.752941 0.752941
vn -1.584577 2.712696 -0.000002
v 22.463354 64.998581 4.285439 0.752941 0.752941 0.752941
vn -1.584575 2.712697 -0.000001
v 25.254938 66.629242 4.553465 0.752941 0.752941 0.752941
vn -1.584577 2.712696 -0.000001
v 28.046522 68.259895 4.821491 0.752941 0.752941 0.752941
vn -1.584577 2.712697 -0.000001
v 30.838106 69.890556 5.089517 0.752941 0.752941 0.752941
vn -1.584574 2.712698 -0.000006
v 33.629692 71.521210 5.357543 0.752941 0.752941 0.752941
vn -0.834010 1.427770 0.000000
v 36.421276 73.151871 5.625568 0.752941 0.752941 0.752941
vn -1.584577 2.712696 -0.000000
v 36.421276 73.151871 8.718936 0.752941 0.752941 0.752941
vn -1.298353 -0.590064 -0.084197
v 13.773115 59.922325 9.637808 0.752941 0.752941 0.752941
vn -1.445044 -0.656731 -0.093710
v 21.534864 43.235077 6.894980 0.752941 0.752941 0.752941
vn -1.410064 -0.640834 -0.091442
v 21.534864 44.097641 0.850021 0.752941 0.752941 0.752941
vn -2.855108 -1.297565 -0.185151
v 21.534864 43.666359 3.872501 0.752941 0.752941 0.752941
vn -1.556756 -0.707501 -0.100954
v 14.088602 60.106613 3.481363 0.752941 0.752941 0.752941
vn -2.855109 -1.297566 -0.185151
v 15.713552 55.750515 8.952101 0.752941 0.752941 0.752941
vn -2.855108 -1.297565 -0.185151
v 17.653990 51.578701 8.266395 0.752941 0.752941 0.752941
vn -2.855109 -1.297566 -0.185150
v 19.594427 47.406891 7.580688 0.752941 0.752941 0.752941
vn -2.855109 -1.297565 -0.185150
v 19.673298 48.099884 1.507857 0.752941 0.752941 0.752941
vn -2.855109 -1.297566 -0.185151
v 17.811733 52.102127 2.165692 0.752941 0.752941 0.752941
vn -2.855109 -1.297566 -0.185151
v 15.950168 56.104370 2.823527 0.752941 0.752941 0.752941
vn -0.175874 -1.542901 -0.220159
v 21.534864 43.235077 6.894980 0.752941 0.752941 0.752941
vn -0.176408 -1.547574 -0.220826
v 21.534864 44.097641 0.850021 0.752941 0.752941 0.752941
vn -0.171406 -1.503693 -0.214564
v 34.455875 42.658527 0.613479 0.752941 0.752941 0.752941
vn -0.352283 -3.090475 -0.440984
v 21.534864 43.666359 3.872501 0.752941 0.752941 0.752941
vn -0.352282 -3.090475 -0.440983
v 25.761208 42.764359 6.817610 0.752941 0.752941 0.752941
vn -0.352283 -3.090475 -0.440983
v 29.987549 42.293640 6.740239 0.752941 0.752941 0.752941
vn -0.180878 -1.586781 -0.226419
v 34.213890 41.822918 6.662868 0.752941 0.752941 0.752941
vn -0.352283 -3.090475 -0.440983
v 30.148870 43.138233 0.692327 0.752941 0.752941 0.752941
vn -0.352282 -3.090475 -0.440983
v 25.841867 43.617935 0.771174 0.752941 0.752941 0.752941
vn -0.352284 -3.090476 -0.440983
v 34.334881 42.240723 3.638174 0.752941 0.752941 0.752941
vn -0.000000 -1.019072 6.199993
v 31.665438 49.493149 7.923599 0.752941 0.752941 0.752941
vn 0.000000 -1.019072 6.199993
v 25.261366 50.713341 8.124158 0.752941 0.752941 0.752941
vn -0.000000 -1.019072 6.199993
v 33.204975 57.388107 9.221267 0.752941 0.752941 0.752941
vn -0.000000 -1.019072 6.199993
v 26.800901 58.608299 9.421825 0.752941 0.752941 0.752941
vn -0.000000 -1.019072 6.199992
v 20.396830 59.828491 9.622384 0.752941 0.752941 0.752941
vn 0.000000 -0.342787 2.085499
v 21.534864 43.235077 6.894980 0.752941 0.752941 0.752941
vn 0.000000 -0.509536 3.099997
v 25.761208 42.764359 6.817610 0.752941 0.752941 0.752941
vn 0.000000 -0.509536 3.099997
v 29.987549 42.293640 6.740239 0.752941 0.752941 0.752941
vn -0.000000 -0.281682 1.713741
v 34.213890 41.822918 6.662868 0.752941 0.752941 0.752941
vn -0.000001 -0.285257 1.735497
v 42.167606 69.288559 11.177304 0.752941 0.752941 0.752941
vn -0.000001 -0.317136 1.929442
v 41.479374 69.630394 11.233490 0.752941 0.752941 0.752941
vn -0.000000 -0.509536 3.099996
v 35.208107 45.256126 7.227173 0.752941 0.752941 0.752941
vn -0.000000 -0.509536 3.099997
v 36.202320 48.689331 7.791478 0.752941 0.752941 0.752941
vn -0.000000 -0.509536 3.099997
v 37.196533 52.122536 8.355783 0.752941 0.752941 0.752941
vn -0.000000 -0.509536 3.099996
v 38.190750 55.555740 8.920087 0.752941 0.752941 0.752941
vn -0.000000 -0.509536 3.099996
v 39.184963 58.988945 9.484391 0.752941 0.752941 0.752941
vn -0.000000 -0.509536 3.099997
v 40.179176 62.422150 10.048696 0.752941 0.752941 0.752941
vn -0.000000 -0.509536 3.099997
v 41.173389 65.855354 10.613000 0.752941 0.752941 0.752941
vn -0.000000 -0.288074 1.752635
v 36.421276 73.151871 11.812304 0.752941 0.752941 0.752941
vn 0.000000 -0.509536 3.099996
v 33.590256 71.498177 11.540492 0.752941 0.752941 0.752941
vn -0.000000 -0.509536 3.099996
v 30.759233 69.844482 11.268680 0.752941 0.752941 0.752941
vn 0.000000 -0.509536 3.099996
v 27.928213 68.190788 10.996867 0.752941 0.752941 0.752941
vn -0.000000 -0.509537 3.099998
v 25.097193 66.537094 10.725056 0.752941 0.752941 0.752941
vn -0.000000 -0.509536 3.099995
v 22.266174 64.883408 10.453243 0.752941 0.752941 0.752941
vn 0.000000 -0.509536 3.099996
v 19.435154 63.229713 10.181432 0.752941 0.752941 0.752941
vn 0.000000 -0.509536 3.099997
v 16.604136 61.576019 9.909619 0.752941 0.752941 0.752941
vn 0.000000 -0.271669 1.652824
v 13.773115 59.922325 9.637808 0.752941 0.752941 0.752941
vn -0.000000 -0.317603 1.932289
v 36.986942 72.540382 11.711796 0.752941 0.752941 0.752941
vn 0.000000 -0.747154 4.545655
v 33.164707 64.601677 10.406937 0.752941 0.752941 0.752941
vn 0.000000 -0.509536 3.099996
v 35.075825 68.571030 11.059366 0.752941 0.752941 0.752941
vn -0.000000 -0.715388 4.352393
v 34.639080 63.711174 10.260568 0.752941 0.752941 0.752941
vn -0.000000 -0.509536 3.099996
v 38.059227 66.670784 10.747029 0.752941 0.752941 0.752941
vn -0.000000 -0.509536 3.099997
v 15.713552 55.750515 8.952101 0.752941 0.752941 0.752941
vn -0.000000 -0.509536 3.099996
v 17.653990 51.578701 8.266395 0.752941 0.752941 0.752941
vn -0.000000 -0.509536 3.099997
v 19.594427 47.406891 7.580688 0.752941 0.752941 0.752941
vn -0.000000 1.019072 -6.199993
v 31.854452 50.104057 1.837276 0.752941 0.752941 0.752941
vn 0.000000 1.019072 -6.199994
v 25.517765 51.311409 2.035725 0.752941 0.752941 0.752941
vn -0.000000 1.019072 -6.199992
v 33.353447 57.791096 3.100769 0.752941 0.752941 0.752941
vn -0.000000 1.019072 -6.199993
v 27.016758 58.998451 3.299218 0.752941 0.752941 0.752941
vn 0.000000 1.019072 -6.199993
v 20.680069 60.205803 3.497667 0.752941 0.752941 0.752941
vn 0.000000 0.342787 -2.085500
v 21.534864 44.097641 0.850021 0.752941 0.752941 0.752941
vn 0.000000 0.509536 -3.099995
v 25.841867 43.617935 0.771174 0.752941 0.752941 0.752941
vn 0.000000 0.509536 -3.099997
v 30.148870 43.138233 0.692327 0.752941 0.752941 0.752941
vn 0.000000 0.281682 -1.713740
v 34.455875 42.658527 0.613479 0.752941 0.752941 0.752941
vn 0.000001 0.285258 -1.735497
v 42.167606 69.288559 4.990569 0.752941 0.752941 0.752941
vn 0.000001 0.317136 -1.929442
v 41.479374 69.630394 5.046754 0.752941 0.752941 0.752941
vn 0.000000 0.509536 -3.099997
v 35.419842 45.987282 1.160616 0.752941 0.752941 0.752941
vn 0.000000 0.509536 -3.099997
v 36.383808 49.316036 1.707752 0.752941 0.752941 0.752941
vn -0.000000 0.509536 -3.099997
v 37.347775 52.644791 2.254888 0.752941 0.752941 0.752941
vn -0.000000 0.509536 -3.099996
v 38.311741 55.973545 2.802024 0.752941 0.752941 0.752941
vn -0.000000 0.509536 -3.099996
v 39.275707 59.302299 3.349160 0.752941 0.752941 0.752941
vn -0.000000 0.509536 -3.099996
v 40.239674 62.631054 3.896296 0.752941 0.752941 0.752941
vn 0.000000 0.509536 -3.099997
v 41.203640 65.959808 4.443432 0.752941 0.752941 0.752941
vn 0.000000 0.288073 -1.752634
v 36.421276 73.151871 5.625568 0.752941 0.752941 0.752941
vn 0.000000 0.509537 -3.099998
v 33.629692 71.521210 5.357543 0.752941 0.752941 0.752941
vn -0.000000 0.509536 -3.099994
v 30.838106 69.890556 5.089517 0.752941 0.752941 0.752941
vn -0.000000 0.509536 -3.099998
v 28.046522 68.259895 4.821491 0.752941 0.752941 0.752941
vn 0.000000 0.509536 -3.099994
v 25.254938 66.629242 4.553465 0.752941 0.752941 0.752941
vn -0.000000 0.509536 -3.099998
v 22.463354 64.998581 4.285439 0.752941 0.752941 0.752941
vn 0.000000 0.509536 -3.099995
v 19.671770 63.367928 4.017414 0.752941 0.752941 0.752941
vn 0.000000 0.509536 -3.099996
v 16.880186 61.737270 3.749388 0.752941 0.752941 0.752941
vn 0.000000 0.271669 -1.652824
v 14.088602 60.106613 3.481363 0.752941 0.752941 0.752941
vn 0.000000 0.317603 -1.932289
v 36.986942 72.540382 5.525060 0.752941 0.752941 0.752941
vn -0.000000 0.747154 -4.545656
v 33.164707 64.601677 4.220201 0.752941 0.752941 0.752941
vn 0.000000 0.509537 -3.099996
v 35.075825 68.571030 4.872631 0.752941 0.752941 0.752941
vn -0.000000 0.715388 -4.352392
v 34.639080 63.711174 4.073832 0.752941 0.752941 0.752941
vn -0.000000 0.509536 -3.099997
v 38.059227 66.670784 4.560293 0.752941 0.752941 0.752941
vn 0.000000 0.509536 -3.099996
v 15.950168 56.104370 2.823527 0.752941 0.752941 0.752941
vn 0.000000 0.509536 -3.099997
v 17.811733 52.102127 2.165692 0.752941 0.752941 0.752941
vn 0.000000 0.509536 -3.099996
v 19.673298 48.099884 1.507857 0.752941 0.752941 0.752941
vn 0.666282 1.341456 0.000000
v 41.479374 69.630394 11.233490 0.752941 0.752941 0.752941
vn 0.666282 1.341456 0.000000
v 42.167606 69.288559 4.990569 0.752941 0.752941 0.752941
vn 0.731215 1.472190 0.000000
v 42.167606 69.288559 11.177304 0.752941 0.752941 0.752941
vn 0.731215 1.472190 0.000000
v 41.479374 69.630394 5.046754 0.752941 0.752941 0.752941
vn 1.397497 2.813646 0.000000
v 42.167606 69.288559 8.083937 0.752941 0.752941 0.752941
vn 1.397497 2.813647 0.000000
v 41.479374 69.630394 8.140122 0.752941 0.752941 0.752941
vn 1.358397 -0.393376 0.000000
v 42.167606 69.288559 11.177304 0.752941 0.752941 0.752941
vn 1.495588 -0.433104 0.000002
v 34.455875 42.658527 0.613479 0.752941 0.752941 0.752941
vn 3.017609 -0.873864 0.000001
v 34.334881 42.240723 3.638174 0.752941 0.752941 0.752941
vn 1.522022 -0.440760 -0.000000
v 34.213890 41.822918 6.662868 0.752941 0.752941 0.752941
vn 3.017609 -0.873863 0.000000
v 35.208107 45.256126 7.227173 0.752941 0.752941 0.752941
vn 3.017610 -0.873862 0.000001
v 36.202320 48.689331 7.791478 0.752941 0.752941 0.752941
vn 3.017609 -0.873863 0.000001
v 37.196533 52.122536 8.355783 0.752941 0.752941 0.752941
vn 3.017610 -0.873864 -0.000000
v 38.190750 55.555740 8.920087 0.752941 0.752941 0.752941
vn 3.017610 -0.873862 0.000000
v 39.184963 58.988945 9.484391 0.752941 0.752941 0.752941
vn 3.017610 -0.873862 0.000001
v 40.179176 62.422150 10.048696 0.752941 0.752941 0.752941
vn 3.017609 -0.873864 0.000001
v 41.173389 65.855354 10.613000 0.752941 0.752941 0.752941
vn 1.659213 -0.480488 0.000000
v 42.167606 69.288559 4.990569 0.752941 0.752941 0.752941
vn 3.017609 -0.873863 0.000001
v 41.203640 65.959808 4.443432 0.752941 0.752941 0.752941
vn 3.017610 -0.873863 0.000000
v 40.239674 62.631054 3.896296 0.752941 0.752941 0.752941
vn 3.017610 -0.873863 0.000000
v 39.275707 59.302299 3.349160 0.752941 0.752941 0.752941
vn 3.017610 -0.873863 0.000000
v 38.311741 55.973545 2.802024 0.752941 0.752941 0.752941
vn 3.017610 -0.873863 0.000001
v 37.347775 52.644791 2.254888 0.752941 0.752941 0.752941
vn 3.017610 -0.873863 0.000001
v 36.383808 49.316036 1.707752 0.752941 0.752941 0.752941
vn 3.017610 -0.873864 0.000001
v 35.419842 45.987282 1.160616 0.752941 0.752941 0.752941
vn 3.017609 -0.873864 0.000000
v 42.167606 69.288559 8.083937 0.752941 0.752941 0.752941
vn 1.064938 0.985137 0.000000
v 36.421276 73.151871 11.812304 0.752941 0.752941 0.752941
vn 1.064938 0.985137 0.000000
v 36.986942 72.540382 5.525060 0.752941 0.752941 0.752941
vn 1.241229 1.148217 0.000000
v 36.986942 72.540382 11.711796 0.752941 0.752941 0.752941
vn 1.241229 1.148217 0.000000
v 36.421276 73.151871 5.625568 0.752941 0.752941 0.752941
vn 2.306167 2.133353 0.000000
v 36.421276 73.151871 8.718936 0.752941 0.752941 0.752941
vn 2.306167 2.133353 0.000000
v 36.986942 72.540382 8.618428 0.752941 0.752941 0.752941
vn 1.282825 -0.617640 0.000000
v 36.986942 72.540382 11.711796 0.752941 0.752941 0.752941
vn 1.282825 -0.617640 0.000000
v 33.164707 64.601677 4.220201 0.752941 0.752941 0.752941
vn 1.547769 -0.745202 0.000000
v 33.164707 64.601677 10.406937 0.752941 0.752941 0.752941
vn 2.830594 -1.362842 0.000000
v 35.075825 68.571030 11.059366 0.752941 0.752941 0.752941
vn 1.547770 -0.745202 0.000000
v 36.986942 72.540382 5.525060 0.752941 0.752941 0.752941
vn 2.830595 -1.362842 0.000000
v 35.075825 68.571030 4.872631 0.752941 0.752941 0.752941
vn 2.830595 -1.362842 0.000000
v 36.986942 72.540382 8.618428 0.752941 0.752941 0.752941
vn 2.830595 -1.362842 0.000000
v 33.164707 64.601677 7.313569 0.752941 0.752941 0.752941
vn 0.768278 1.272010 0.000000
v 33.164707 64.601677 10.406937 0.752941 0.752941 0.752941
vn 0.768278 1.272010 0.000000
v 34.639080 63.711174 4.073832 0.752941 0.752941 0.752941
vn 0.855936 1.417141 0.000000
v 34.639080 63.711174 10.260568 0.752941 0.752941 0.752941
vn 0.855936 1.417141 0.000000
v 33.164707 64.601677 4.220201 0.752941 0.752941 0.752941
vn 1.624214 2.689151 0.000000
v 33.164707 64.601677 7.313569 0.752941 0.752941 0.752941
vn 1.624214 2.689151 0.000000
v 34.639080 63.711174 7.167200 0.752941 0.752941 0.752941
vn -0.957756 1.106790 0.000000
v 34.639080 63.711174 4.073832 0.752941 0.752941 0.752941
vn -0.957756 1.106790 0.000000
v 41.479374 69.630394 11.233490 0.752941 0.752941 0.752941
vn -2.055732 2.375619 0.000000
v 38.059227 66.670784 10.747029 0.752941 0.752941 0.752941
vn -1.097977 1.268830 0.000000
v 34.639080 63.711174 10.260568 0.752941 0.752941 0.752941
vn -2.055732 2.375619 0.000000
v 38.059227 66.670784 4.560293 0.752941 0.752941 0.752941
vn -1.097976 1.268830 0.000000
v 41.479374 69.630394 5.046754 0.752941 0.752941 0.752941
vn -2.055733 2.375620 0.000000
v 41.479374 69.630394 8.140122 0.752941 0.752941 0.752941
vn -2.055732 2.375620 0.000000
v 34.639080 63.711174 7.167200 0.752941 0.752941 0.752941
# 164 vertices, 0 vertices normals

f 2//2 11//11 3//3
f 10//10 13//13 12//12
f 2//2 12//12 11//11
f 10//10 12//12 2//2
f 13//13 10//10 9//9
f 8//8 7//7 15//15
f 9//9 8//8 14//14
f 13//13 9//9 14//14
f 15//15 7//7 16//16
f 19//19 18//18 17//17
f 16//16 7//7 19//19
f 17//17 16//16 19//19
f 19//19 6//6 5//5
f 1//1 19//19 4//4
f 5//5 4//4 19//19
f 6//6 19//19 7//7
f 14//14 8//8 15//15
f 20//20 24//24 30//30
f 20//20 30//30 25//25
f 25//25 30//30 29//29
f 25//25 29//29 26//26
f 23//23 21//21 27//27
f 26//26 29//29 23//23
f 23//23 29//29 28//28
f 23//23 28//28 22//22
f 27//27 26//26 23//23
f 34//34 35//35 31//31
f 32//32 39//39 34//34
f 35//35 34//34 39//39
f 35//35 39//39 38//38
f 35//35 38//38 36//36
f 40//40 37//37 36//36
f 33//33 40//40 38//38
f 36//36 38//38 40//40
f 44//44 42//42 41//41
f 44//44 41//41 43//43
f 42//42 44//44 45//45
f 48//48 49//49 52//52
f 41//41 47//47 48//48
f 52//52 41//41 48//48
f 41//41 52//52 53//53
f 43//43 54//54 55//55
f 53//53 54//54 41//41
f 43//43 41//41 54//54
f 43//43 55//55 56//56
f 42//42 75//75 46//46
f 75//75 42//42 74//74
f 47//47 42//42 46//46
f 41//41 42//42 47//47
f 66//66 67//67 73//73
f 45//45 73//73 74//74
f 45//45 66//66 73//73
f 45//45 44//44 64//64
f 42//42 45//45 74//74
f 44//44 43//43 69//69
f 72//72 71//71 57//57
f 71//71 69//69 43//43
f 57//57 71//71 56//56
f 72//72 57//57 58//58
f 58//58 51//51 72//72
f 50//50 51//51 58//58
f 59//59 60//60 68//68
f 64//64 44//44 63//63
f 45//45 64//64 65//65
f 66//66 45//45 65//65
f 62//62 44//44 69//69
f 61//61 70//70 60//60
f 68//68 60//60 70//70
f 63//63 44//44 62//62
f 61//61 62//62 69//69
f 61//61 69//69 70//70
f 71//71 43//43 56//56
f 79//79 78//78 76//76
f 79//79 76//76 77//77
f 77//77 80//80 79//79
f 83//83 87//87 84//84
f 76//76 83//83 82//82
f 87//87 83//83 76//76
f 76//76 88//88 87//87
f 78//78 90//90 89//89
f 88//88 76//76 89//89
f 78//78 89//89 76//76
f 78//78 91//91 90//90
f 77//77 81//81 110//110
f 110//110 109//109 77//77
f 82//82 81//81 77//77
f 76//76 82//82 77//77
f 101//101 108//108 102//102
f 80//80 109//109 108//108
f 80//80 108//108 101//101
f 80//80 99//99 79//79
f 77//77 109//109 80//80
f 79//79 104//104 78//78
f 107//107 92//92 106//106
f 106//106 78//78 104//104
f 92//92 91//91 106//106
f 107//107 93//93 92//92
f 93//93 107//107 86//86
f 85//85 93//93 86//86
f 94//94 103//103 95//95
f 99//99 98//98 79//79
f 80//80 100//100 99//99
f 101//101 100//100 80//80
f 97//97 104//104 79//79
f 96//96 95//95 105//105
f 103//103 105//105 95//95
f 97//97 79//79 98//98
f 97//97 96//96 104//104
f 96//96 105//105 104//104
f 106//106 91//91 78//78
f 116//116 115//115 112//112
f 116//116 112//112 114//114
f 111//111 113//113 115//115
f 111//111 115//115 116//116
f 136//136 129//129 128//128
f 124//124 131//131 125//125
f 126//126 130//130 129//129
f 131//131 130//130 125//125
f 127//127 136//136 117//117
f 136//136 127//127 129//129
f 127//127 126//126 129//129
f 126//126 125//125 130//130
f 124//124 132//132 131//131
f 134//134 133//133 122//122
f 119//119 118//118 135//135
f 121//121 135//135 134//134
f 135//135 121//121 119//119
f 124//124 123//123 132//132
f 133//133 123//123 122//122
f 119//119 121//121 120//120
f 134//134 122//122 121//121
f 133//133 132//132 123//123
f 141//141 142//142 138//138
f 141//141 138//138 140//140
f 137//137 139//139 142//142
f 137//137 142//142 141//141
f 149//149 148//148 147//147
f 149//149 143//143 146//146
f 146//146 148//148 149//149
f 148//148 146//146 150//150
f 150//150 146//146 145//145
f 144//144 148//148 150//150
f 155//155 156//156 152//152
f 155//155 152//152 154//154
f 151//151 153//153 156//156
f 151//151 156//156 155//155
f 164//164 161//161 157//157
f 164//164 160//160 159//159
f 159//159 161//161 164//164
f 161//161 159//159 163//163
f 163//163 159//159 158//158
f 162//162 161//161 163//163
# 152 faces, 0 coords texture

# End of File
